<?xml version="1.0" encoding="UTF-8" standalone="no"?>
<svg
   width="20"
   height="20"
   viewBox="0 0 20 20"
   fill="none"
   version="1.1"
   id="svg1"
   sodipodi:docname="arrow.svg"
   xmlns:inkscape="http://www.inkscape.org/namespaces/inkscape"
   xmlns:sodipodi="http://sodipodi.sourceforge.net/DTD/sodipodi-0.dtd"
   xmlns="http://www.w3.org/2000/svg"
   xmlns:svg="http://www.w3.org/2000/svg">
  <defs
     id="defs1" />
  <sodipodi:namedview
     id="namedview1"
     pagecolor="#ffffff"
     bordercolor="#000000"
     borderopacity="0.25"
     inkscape:showpageshadow="2"
     inkscape:pageopacity="0.0"
     inkscape:pagecheckerboard="0"
     inkscape:deskcolor="#d1d1d1"
     showgrid="false"
     inkscape:export-bgcolor="#ffffff00" />
  <path
     id="circle1"
     style="fill:#ffffff;fill-opacity:0.4"
     d="M 10,0 A 10,10 0 0 0 0,10 10,10 0 0 0 10,20 10,10 0 0 0 20,10 10,10 0 0 0 10,0 Z M 8.2578125,5.9726562 h 5.1933595 c 0.3187,0 0.576172,0.2575522 0.576172,0.5761719 v 5.1933599 c 0,0.318599 -0.257472,0.576171 -0.576172,0.576171 -0.3186,0 -0.578125,-0.257572 -0.578125,-0.576171 V 7.9414062 L 7.3300781,13.484375 c -0.2252997,0.2253 -0.5891533,0.2253 -0.8144531,0 -0.2252998,-0.2254 -0.2252998,-0.589153 0,-0.814453 L 12.058594,7.1269531 H 8.2578125 c -0.3186297,0 -0.5761719,-0.2594953 -0.5761719,-0.578125 0,-0.3186197 0.2575422,-0.5761719 0.5761719,-0.5761719 z" />
</svg>
